<svg width="293" height="153" viewBox="0 0 293 153" fill="none" xmlns="http://www.w3.org/2000/svg">
<path d="M5 9H207C208.657 9 210 10.3431 210 12V128C210 129.657 208.657 131 207 131H5C3.34315 131 2 129.657 2 128V12C2 10.3431 3.34315 9 5 9Z" fill="#58AFC2" stroke="#49A2B6" stroke-width="4"/>
<rect x="25" y="21" width="64" height="79" rx="5" fill="#49A2B6"/>
<rect x="106" y="25" width="84" height="13" rx="6.5" fill="#49A2B6"/>
<rect x="106" y="63" width="84" height="13" rx="6.5" fill="#49A2B6"/>
<rect x="106" y="82" width="84" height="13" rx="6.5" fill="#49A2B6"/>
<rect x="22" y="106" width="176" height="13" rx="6.5" fill="#49A2B6"/>
<rect x="106" y="44" width="84" height="13" rx="6.5" fill="#49A2B6"/>
<rect x="231.5" y="1.5" width="60" height="138" rx="3.5" fill="#58AFC2" stroke="#49A2B6" stroke-width="3"/>
<rect x="236" y="26" width="51" height="5" fill="#49A2B6"/>
<rect x="241" y="82" width="41" height="48" rx="5" fill="#49A2B6"/>
<rect x="236" y="36" width="51" height="6" fill="#49A2B6"/>
<rect x="236" y="47" width="51" height="5" fill="#49A2B6"/>
<rect x="262" y="64" width="8" height="5" fill="#49A2B6"/>
<rect x="274" y="64" width="8" height="5" fill="#49A2B6"/>
<rect x="236" y="16" width="51" height="5" fill="#49A2B6"/>
<rect x="23" y="145" width="171" height="7" rx="3.5" fill="#58AFC2" stroke="#49A2B6" stroke-width="2"/>
</svg>
